<?xml version="1.0" encoding="UTF-8"?>
<svg version="1.1" xmlns="http://www.w3.org/2000/svg" width="498" height="163">
<path d="M0 0 C14.6529864 11.30876127 24.30098366 26.44240681 29.1875 44.25 C29.1875 45.57 29.1875 46.89 29.1875 48.25 C30.5075 48.58 31.8275 48.91 33.1875 49.25 C30.90933534 79.36830135 26.44423169 103.73045949 3.71875 125.62890625 C-14.82368486 141.42087994 -37.0587251 145.67123563 -60.8125 144.25 C-75.67351046 142.57298155 -90.81187553 135.30714025 -101.8125 125.25 C-102.70453125 124.44949219 -103.5965625 123.64898437 -104.515625 122.82421875 C-120.86819328 107.38757301 -129.19181771 87.14100842 -129.875 64.79296875 C-129.91808293 52.45778876 -127.52011166 40.21543871 -121.8125 29.25 C-121.0390625 27.74373047 -121.0390625 27.74373047 -120.25 26.20703125 C-116.29421715 18.98223341 -111.53104754 13.14339522 -105.8125 7.25 C-105.26078125 6.62480469 -104.7090625 5.99960937 -104.140625 5.35546875 C-77.04786211 -24.35268462 -30.63233228 -20.8856811 0 0 Z M-94.07421875 28.921875 C-98.47183255 34.67697772 -101.65216831 40.33693858 -103.8125 47.25 C-104.14894531 48.2709375 -104.14894531 48.2709375 -104.4921875 49.3125 C-108.20165655 62.72756615 -106.5371807 78.90858214 -99.82421875 91.01953125 C-91.1430185 105.58030655 -79.20790009 115.52866792 -62.6875 119.75 C-47.41789593 123.23333866 -32.83168846 120.94822801 -19.296875 112.859375 C-18.47703125 112.32828125 -17.6571875 111.7971875 -16.8125 111.25 C-16.03390625 110.76015625 -15.2553125 110.2703125 -14.453125 109.765625 C-7.59400946 104.98789624 -2.94902894 98.4237234 1.1875 91.25 C1.5589917 90.65695068 1.9304834 90.06390137 2.31323242 89.45288086 C6.14186047 82.40707642 5.89694646 74.76816088 5.8737793 66.95922852 C5.87498953 64.58304964 5.9347566 62.21312278 5.99804688 59.83789062 C6.15374304 46.18609496 2.03551464 35.89895509 -6.8125 25.2734375 C-17.76501364 14.19257409 -32.99770448 7.44435909 -48.5625 6.8125 C-66.78864991 7.36191212 -82.31213774 15.02677411 -94.07421875 28.921875 Z " fill="#2375FB" transform="translate(131.8125,17.75)"/>
<path d="M0 0 C1.11181641 -0.020625 2.22363281 -0.04125 3.36914062 -0.0625 C11.41107475 -0.10059087 17.54153617 0.38790665 23.8125 5.875 C26.36190308 10.1771177 26.79692888 13.36270264 25.8125 18.25 C24.69599907 20.59321439 23.47654694 22.22194279 21.8125 24.25 C22.59625 24.806875 23.38 25.36375 24.1875 25.9375 C28.13783888 29.41756044 28.67770626 31.87959698 29.1875 37.0625 C29.03718946 41.73981043 27.64748423 45.52236768 24.8125 49.25 C19.69153567 53.37291096 14.48702716 54.37560823 8.09375 54.3828125 C6.99675781 54.38410156 5.89976562 54.38539062 4.76953125 54.38671875 C3.62871094 54.38285156 2.48789063 54.37898438 1.3125 54.375 C0.17167969 54.37886719 -0.96914062 54.38273437 -2.14453125 54.38671875 C-3.24152344 54.38542969 -4.33851563 54.38414063 -5.46875 54.3828125 C-6.46970703 54.38168457 -7.47066406 54.38055664 -8.50195312 54.37939453 C-11.1875 54.25 -11.1875 54.25 -15.1875 53.25 C-15.1875 36.09 -15.1875 18.93 -15.1875 1.25 C-10.2555027 -0.3939991 -5.16439083 0.02354138 0 0 Z M-2.1875 11.25 C-2.1875 14.22 -2.1875 17.19 -2.1875 20.25 C3.80243047 20.5652595 7.44810356 19.93219822 12.8125 17.25 C12.4825 15.6 12.1525 13.95 11.8125 12.25 C7.17096395 10.48179579 2.49700286 8.90774857 -2.1875 11.25 Z M-2.1875 30.25 C-2.1875 34.54 -2.1875 38.83 -2.1875 43.25 C3.488128 44.24572421 7.28673128 44.34979212 12.8125 42.25 C15.11077312 40.37061828 15.11077312 40.37061828 15.125 37.3125 C15.05701313 34.31988181 15.05701313 34.31988181 13.625 32.4375 C8.95505627 29.37788169 3.17238093 30.17000178 -2.1875 30.25 Z " fill="#000000" transform="translate(251.1875,54.75)"/>
<path d="M0 0 C1.15048828 -0.00386719 1.15048828 -0.00386719 2.32421875 -0.0078125 C3.49017578 0.00378906 3.49017578 0.00378906 4.6796875 0.015625 C5.46472656 0.00789063 6.24976563 0.00015625 7.05859375 -0.0078125 C10.5517818 0.00396891 13.09032026 0.0767737 16.359375 1.40625 C17.08382812 1.68984375 17.80828125 1.9734375 18.5546875 2.265625 C19.91139507 1.64791407 21.24277982 0.97352362 22.5546875 0.265625 C25.83203125 -0.03515625 25.83203125 -0.03515625 29.4921875 -0.046875 C30.69746094 -0.06363281 31.90273437 -0.08039063 33.14453125 -0.09765625 C36.81699015 0.29356789 38.62962876 1.06273884 41.5546875 3.265625 C46.26675498 9.15570935 46.68734387 14.40778704 46.65234375 21.7578125 C46.64912109 22.95664063 46.64589844 24.15546875 46.64257812 25.390625 C46.63000977 27.246875 46.63000977 27.246875 46.6171875 29.140625 C46.61267578 30.40132812 46.60816406 31.66203125 46.60351562 32.9609375 C46.5917672 36.06252045 46.57383285 39.16407888 46.5546875 42.265625 C42.2646875 42.265625 37.9746875 42.265625 33.5546875 42.265625 C33.50570312 40.60273437 33.45671875 38.93984375 33.40625 37.2265625 C33.33119603 35.03123399 33.25564934 32.83592228 33.1796875 30.640625 C33.14875 29.54621094 33.1178125 28.45179687 33.0859375 27.32421875 C32.89149538 21.97706041 32.70795132 17.25489484 30.5546875 12.265625 C28.2446875 11.935625 25.9346875 11.605625 23.5546875 11.265625 C23.5546875 21.495625 23.5546875 31.725625 23.5546875 42.265625 C19.2646875 42.265625 14.9746875 42.265625 10.5546875 42.265625 C10.49410156 40.26757812 10.43351562 38.26953125 10.37109375 36.2109375 C10.30852139 34.27814669 10.24591646 32.34535678 10.18237305 30.41259766 C10.11770499 28.40667693 10.05785644 26.40060272 9.99804688 24.39453125 C9.95615234 23.13769531 9.91425781 21.88085938 9.87109375 20.5859375 C9.83443604 19.42336426 9.79777832 18.26079102 9.76000977 17.06298828 C9.73647091 14.3120749 9.73647091 14.3120749 8.5546875 12.265625 C6.2446875 11.935625 3.9346875 11.605625 1.5546875 11.265625 C1.5546875 21.495625 1.5546875 31.725625 1.5546875 42.265625 C-2.7353125 42.265625 -7.0253125 42.265625 -11.4453125 42.265625 C-11.4453125 29.065625 -11.4453125 15.865625 -11.4453125 2.265625 C-3.55658211 0.01170203 -3.55658211 0.01170203 0 0 Z " fill="#000000" transform="translate(180.4453125,65.734375)"/>
<path d="M0 0 C0 19.47 0 38.94 0 59 C-5.94388484 60.69825281 -9.98453198 61.3649528 -15.9375 61.375 C-16.69740234 61.39949219 -17.45730469 61.42398438 -18.24023438 61.44921875 C-23.94885588 61.47846873 -28.22338114 60.15847174 -33 57 C-38.81057942 51.03651059 -39.39411714 45.00702134 -39.36791992 37.03222656 C-39.2269376 31.20317551 -38.36095156 27.72349949 -35 23 C-28.55595497 16.87029863 -22.50790379 17.91576333 -14 18 C-13.67 12.39 -13.34 6.78 -13 1 C-7 0 -7 0 0 0 Z M-22.3125 28.625 C-24.96346678 30.785047 -25.87846133 33.02926907 -26.30078125 36.40234375 C-26.45163827 43.29230791 -26.45163827 43.29230791 -23 49 C-18.05950846 50.9464113 -18.05950846 50.9464113 -13 50 C-13 43.4 -13 36.8 -13 30 C-19.21255852 27.57374452 -19.21255852 27.57374452 -22.3125 28.625 Z " fill="#000000" transform="translate(416,48)"/>
<path d="M0 0 C1.19367188 -0.01675781 2.38734375 -0.03351563 3.6171875 -0.05078125 C8.95385961 0.50190306 12.89630655 2.47216814 16.375 6.5625 C21.06905978 12.43621878 21.87191933 19.01473082 21.125 26.3125 C19.98317945 33.05037178 17.31233868 36.70467744 12.0625 41 C6.6031119 44.69829516 -0.58294698 43.92567903 -6.875 43.3125 C-12.63146831 41.27356771 -15.9703705 37.65701828 -18.875 32.3125 C-21.09072798 25.66531605 -21.20962643 16.05920467 -18.1875 9.625 C-13.85685999 2.57049455 -7.99834965 0.02580113 0 0 Z M-4.875 13.3125 C-7.71409637 17.57114456 -7.38585825 21.31566775 -6.875 26.3125 C-5.51360639 29.75181017 -4.6029389 30.8832027 -1.4375 32.75 C1.08114226 33.52553879 1.08114226 33.52553879 3.3125 32.625 C6.46123186 30.34488383 7.12259681 28.32451594 7.875 24.5625 C8.28830041 20.40653474 7.79902971 17.19320523 6.125 13.3125 C1.21494446 9.60001898 0.10620608 10.03219356 -4.875 13.3125 Z " fill="#000000" transform="translate(108.875,65.6875)"/>
<path d="M0 0 C3.96402294 3.27462765 6.25188904 6.50566713 7.875 11.375 C7.875 15.335 7.875 19.295 7.875 23.375 C-0.705 23.375 -9.285 23.375 -18.125 23.375 C-15.80980603 28.24384589 -15.80980603 28.24384589 -13.21484375 29.3359375 C-7.31418104 30.47109221 -2.05672919 30.29138405 3.875 29.375 C5.875 36 5.875 36 5.875 39.375 C-1.94704871 42.45940407 -11.71316021 42.79916837 -19.87109375 40.65234375 C-24.8290618 38.33737568 -27.8692281 34.99613843 -30.19921875 30.1328125 C-32.59063259 23.00902274 -32.17757788 14.65767463 -29.125 7.8125 C-23.14540058 -2.24184031 -10.66511606 -5.45924947 0 0 Z M-14.9375 9.5 C-17.53028732 11.3563661 -17.53028732 11.3563661 -18.125 15.375 C-13.505 15.375 -8.885 15.375 -4.125 15.375 C-5.5303653 10.30411263 -5.5303653 10.30411263 -8.9375 8.875 C-12.12447542 8.09704916 -12.12447542 8.09704916 -14.9375 9.5 Z " fill="#000000" transform="translate(454.125,67.625)"/>
<path d="M0 0 C4.29 0 8.58 0 13 0 C13.06058594 1.99804688 13.12117188 3.99609375 13.18359375 6.0546875 C13.24616611 7.98747831 13.30877104 9.92026822 13.37231445 11.85302734 C13.43698251 13.85894807 13.49683106 15.86502228 13.55664062 17.87109375 C13.61948242 19.75634766 13.61948242 19.75634766 13.68359375 21.6796875 C13.72025146 22.84226074 13.75690918 24.00483398 13.79467773 25.20263672 C13.81821659 27.9535501 13.81821659 27.9535501 15 30 C17.64 30.33 20.28 30.66 23 31 C23 20.77 23 10.54 23 0 C27.29 0 31.58 0 36 0 C36 13.2 36 26.4 36 40 C30.1241736 41.9586088 26.0365087 42.36612278 20 42.375 C19.1234375 42.39949219 18.246875 42.42398438 17.34375 42.44921875 C11.7076551 42.47468303 8.46057198 41.77433013 4 38 C0.0592401 33.51568701 -0.12151303 29.77069126 -0.09765625 23.92578125 C-0.0962413 23.2419487 -0.09482635 22.55811615 -0.09336853 21.8535614 C-0.08777876 19.67316278 -0.07522822 17.49286749 -0.0625 15.3125 C-0.05748367 13.83268378 -0.052921 12.35286594 -0.04882812 10.87304688 C-0.03781271 7.24866443 -0.02055512 3.6243423 0 0 Z " fill="#000000" transform="translate(287,67)"/>
<path d="M0 0 C1.06637695 0.01450195 1.06637695 0.01450195 2.15429688 0.02929688 C5.27892455 0.09690406 7.83219849 0.31906616 10.8125 1.3125 C10.1525 4.9425 9.4925 8.5725 8.8125 12.3125 C6.59895833 11.98697917 4.38541667 11.66145833 2.171875 11.3359375 C-0.65929675 11.30781328 -1.95749287 11.54625542 -4.1875 13.3125 C-4.5175 15.2925 -4.8475 17.2725 -5.1875 19.3125 C-0.5675 19.3125 4.0525 19.3125 8.8125 19.3125 C8.8125 22.6125 8.8125 25.9125 8.8125 29.3125 C4.1925 29.3125 -0.4275 29.3125 -5.1875 29.3125 C-5.1875 39.5425 -5.1875 49.7725 -5.1875 60.3125 C-9.4775 60.3125 -13.7675 60.3125 -18.1875 60.3125 C-18.28651273 53.30163679 -18.35903827 46.29118227 -18.40722656 39.27978516 C-18.42731893 36.89559843 -18.45459781 34.51146085 -18.48925781 32.12744141 C-18.53787859 28.69681662 -18.56049312 25.26684445 -18.578125 21.8359375 C-18.59877014 20.77321625 -18.61941528 19.710495 -18.64068604 18.61557007 C-18.64253183 12.50260669 -18.29082158 8.95154467 -14.1875 4.3125 C-9.45269209 0.23961958 -5.96259807 -0.24729669 0 0 Z " fill="#000000" transform="translate(77.1875,47.6875)"/>
<path d="M0 0 C0.01030746 0.58437836 0.02061493 1.16875671 0.03123474 1.77084351 C0.13917841 7.83758003 0.25378606 13.90416436 0.37231445 19.97070312 C0.4157023 22.23662134 0.45737449 24.50257307 0.49731445 26.76855469 C0.55492385 30.02028518 0.61864502 33.27184636 0.68359375 36.5234375 C0.70030624 37.54118256 0.71701874 38.55892761 0.73423767 39.60751343 C0.75418289 40.54833771 0.77412811 41.48916199 0.79467773 42.45849609 C0.81022202 43.28900482 0.8257663 44.11951355 0.84178162 44.97518921 C0.87765197 47.06878436 0.87765197 47.06878436 2 49 C3.32 49.66 4.64 50.32 6 51 C5.67 54.3 5.34 57.6 5 61 C-5.15384615 61.46153846 -5.15384615 61.46153846 -10 58 C-13.86388174 52.4045077 -13.38616988 46.78625643 -13.29296875 40.2578125 C-13.28872391 39.13430389 -13.28447906 38.01079529 -13.28010559 36.85324097 C-13.2633589 33.27691337 -13.22571296 29.70115631 -13.1875 26.125 C-13.17244803 23.69532066 -13.15876052 21.26563245 -13.14648438 18.8359375 C-13.11346846 12.89043146 -13.0633085 6.9452565 -13 1 C-8.60563789 0.14256349 -4.47427924 -0.08948558 0 0 Z " fill="#000000" transform="translate(367,48)"/>
<path d="M0 0 C0.78052734 0.00193359 1.56105469 0.00386719 2.36523438 0.00585938 C3.15607422 0.01810547 3.94691406 0.03035156 4.76171875 0.04296875 C5.97698242 0.04393555 5.97698242 0.04393555 7.21679688 0.04492188 C13.16730835 0.08951355 13.16730835 0.08951355 15.44921875 1.23046875 C15.11921875 4.86046875 14.78921875 8.49046875 14.44921875 12.23046875 C10.15921875 11.90046875 5.86921875 11.57046875 1.44921875 11.23046875 C1.44921875 21.46046875 1.44921875 31.69046875 1.44921875 42.23046875 C-2.84078125 42.23046875 -7.13078125 42.23046875 -11.55078125 42.23046875 C-11.55078125 29.03046875 -11.55078125 15.83046875 -11.55078125 2.23046875 C-3.66926201 -0.02139389 -3.66926201 -0.02139389 0 0 Z " fill="#000000" transform="translate(481.55078125,65.76953125)"/>
<path d="M0 0 C1.90458984 0.00966797 1.90458984 0.00966797 3.84765625 0.01953125 C6.9375 0.1875 6.9375 0.1875 8.9375 1.1875 C8.2775 4.4875 7.6175 7.7875 6.9375 11.1875 C0.0075 10.6925 0.0075 10.6925 -7.0625 10.1875 C-7.0625 20.7475 -7.0625 31.3075 -7.0625 42.1875 C-10.6925 42.1875 -14.3225 42.1875 -18.0625 42.1875 C-19.01745567 33.42747355 -19.18216175 24.80730595 -19.125 16 C-19.11996963 14.65299648 -19.11540947 13.30599111 -19.11132812 11.95898438 C-19.09965354 8.70177463 -19.08327883 5.44466222 -19.0625 2.1875 C-12.63521691 0.88282437 -6.56304597 -0.07465719 0 0 Z " fill="#000103" transform="translate(156.0625,65.8125)"/>
<path d="M0 0 C4.29 0 8.58 0 13 0 C13 13.53 13 27.06 13 41 C8.71 41 4.42 41 0 41 C0 27.47 0 13.94 0 0 Z " fill="#000000" transform="translate(332,67)"/>
<path d="M0 0 C2.09765625 0.34765625 2.09765625 0.34765625 4.16015625 1.97265625 C5.69530482 5.8616993 5.69530482 8.8336132 4.16015625 12.72265625 C1.25479602 15.01172795 -1.13511699 14.78726829 -4.74609375 14.78125 C-7.41606478 14.24435365 -8.31745205 13.5455721 -9.90234375 11.34765625 C-10.30078125 9.41015625 -10.30078125 9.41015625 -10.27734375 7.34765625 C-10.28507812 6.66703125 -10.2928125 5.98640625 -10.30078125 5.28515625 C-9.15159738 -0.30303198 -4.80957826 -0.17987041 0 0 Z " fill="#000000" transform="translate(340.90234375,47.65234375)"/>
</svg>
